<svg width="1440" height="813" viewBox="0 0 1440 813" fill="none" xmlns="http://www.w3.org/2000/svg">
<g opacity="0.12">
<path fill-rule="evenodd" clip-rule="evenodd" d="M595.923 1384.11C567.759 1384.23 536.089 1433.92 519.761 1455.14C487.466 1497.1 457.644 1540.74 427.345 1583.98C397.046 1627.22 366.83 1670.57 333.566 1711.8C311.973 1738.57 287.654 1770.03 256.821 1788.18C191.115 1826.86 200.872 1704.91 199.435 1673.33C195.764 1592.97 197.439 1500.8 163.223 1425.47C142.796 1380.51 108.539 1362.58 58.6103 1372.23C42.3726 1375.35 23.6874 1384.56 7.86866 1376.76C-9.02604 1368.42 -18.7751 1349.25 -25.3129 1333.33C-49.1314 1275.28 -51.8911 1208.54 -54.8807 1147.13C-58.1661 1080.9 -57.2051 1014.05 -57.4597 948.292C-57.5665 920.409 -68.137 891.288 -76.7281 864.735C-87.9885 829.925 -100.637 795.528 -112.866 761.007C-139.707 685.06 -167.978 606.803 -174.795 526.452C-179.065 476.132 -173.291 421.136 -136.143 382.046C-117.491 362.419 -89.7625 352.147 -65.1309 340.8C-35.3742 327.065 -5.33011 313.874 23.9584 299.251C118.288 252.146 210.465 184.892 215.098 75.7316C215.796 59.2178 213.521 42.9997 213.094 26.5638C212.831 16.0968 215.5 6.78152 227.056 2.89043C256.041 -6.89176 301.797 23.8556 324.794 36.4627C375.133 64.0661 423.214 95.1948 472.543 124.355C505.166 143.647 549.748 177.04 589.385 177.39C624.702 177.701 650.229 133.187 667.625 108.954C683.911 86.2453 706.703 45.1009 739.836 42.6106C755.901 41.4044 769.215 51.4434 779.547 61.926C797.616 80.2997 810.363 101.467 830.978 117.997C864.801 145.102 911.337 167.748 956.912 164.067C988.492 161.514 1009.17 144.44 1028.94 122.72C1037.25 113.592 1043.14 106.183 1056.63 105.701C1078.06 104.922 1100.74 112.876 1120.6 119.428C1191.71 142.868 1260.46 176.16 1324.65 213.196C1356.73 231.702 1388.72 251.694 1416.08 276.231C1434.05 292.302 1455.44 313.975 1455.42 338.489C1455.42 366.87 1444.61 396.902 1436.53 424.49C1421.42 476.015 1403.96 526.919 1386.05 577.619C1344.6 694.871 1299.8 811.02 1251.65 926.066C1217.67 1007.1 1183.64 1089.86 1138.47 1166.05C1129.6 1180.9 1119.25 1194.93 1107.58 1207.93C1095.31 1221.82 1089.83 1239.06 1085.74 1256.54C1060.35 1365.02 1079.84 1483.87 1092.06 1592.8C1095.16 1620.45 1098.27 1648.1 1100.44 1675.83C1102.3 1699.67 1107.65 1728.21 1099.62 1751.37C1083.81 1797.02 1025.53 1757.12 1001.79 1740.25C918.187 1680.84 847.454 1604.21 775.243 1533.17C740.854 1499.39 706.555 1465.36 670.22 1433.43C651.329 1416.79 620.612 1384 595.923 1384.11Z" stroke="white"/>
<path fill-rule="evenodd" clip-rule="evenodd" d="M591.175 1363.64C561.374 1381.85 539.347 1413.79 518.618 1440.31C488.776 1478.47 460.592 1517.82 431.595 1556.59C404.175 1593.25 376.443 1629.98 345.304 1663.93C326.315 1684.63 303.607 1710.6 275.522 1720.4C214.647 1741.67 223.883 1627.25 222.291 1599.01C218.35 1528.79 217.447 1449.18 185.396 1384.21C165.381 1343.65 132.19 1326.98 86.1089 1335.64C70.1658 1338.63 56.5542 1344.02 40.6932 1337.19C22.3364 1329.3 10.8921 1311.16 2.81384 1294.53C-22.4965 1242.42 -27.8738 1180.83 -32.348 1124.35C-36.9701 1065.99 -40.2294 1005.2 -36.847 948.721C-35.5006 926.138 -43.1438 900.143 -49.0055 877.793C-58.0361 843.403 -68.4541 809.364 -78.1415 775.146C-97.8447 705.603 -116.825 634.254 -118.984 561.908C-120.544 509.677 -112.088 455.219 -79.4058 411.765C-46.2635 367.727 5.11246 348.188 53.9517 323.766C138.388 281.589 241.05 224.623 258.889 127.046C261.598 112.25 260.129 98.0297 260.794 83.249C261.13 75.6484 262.198 66.9965 270.103 63.1417C290.628 53.1347 328.154 80.5545 343.875 89.7827C387.321 115.279 428.64 143.945 471.248 170.664C505.08 191.885 542.672 218.783 582.776 226.991C631.443 236.951 666.071 171.871 700.338 148.983C759.76 109.306 793.616 184.479 821.948 221.54C854.474 264.098 913.814 299.228 964.139 261.077C983.382 246.483 994.851 228.525 1019.96 222.007C1059.24 211.813 1104.12 219.523 1142.94 227.793C1201.31 240.253 1259.04 259.971 1311.78 286.775C1349.55 305.979 1408.76 337.838 1404.32 384.493C1401.36 415.9 1390.53 447.829 1380.96 478.41C1366.63 524.201 1350.3 569.415 1333.34 614.388C1294.3 718.203 1251.25 820.874 1203.89 921.527C1171.57 990.205 1039.49 1181.78 1034.77 1196.19C1020.74 1239.17 1023.21 1288.04 1025.38 1332.35C1028.27 1391.29 1035.76 1449.94 1042.7 1508.54C1045.98 1536.44 1050 1564.47 1051.61 1592.51C1052.76 1612.47 1053.75 1638.69 1041.51 1656.17C1017.62 1690.29 962.981 1652.28 939.863 1636.55C868.989 1588.39 807.614 1527.46 744.859 1470.33C714.048 1442.29 683.287 1413.83 650.005 1388.38C636.566 1378.12 609.581 1352.39 591.175 1363.64Z" stroke="white"/>
<path fill-rule="evenodd" clip-rule="evenodd" d="M575.891 1338.45C516.256 1388.17 471.903 1456.8 422.098 1516.03C397.093 1545.76 371.406 1575.68 341.621 1601.32C326.133 1614.66 306.548 1631.31 284.958 1633.88C227.204 1640.75 235.013 1537.63 232.821 1506.76C228.567 1447.09 225.34 1379.67 195.867 1325.53C177.85 1292.46 148.279 1276.17 109.412 1282.35C92.1666 1285.09 77.5166 1289.36 60.5835 1282.35C43.4288 1275.25 31.3244 1260.45 22.2502 1245.47C-3.84738 1202.42 -12.1908 1148.92 -18.4072 1100.45C-25.6478 1043.59 -28.4748 986.305 -26.8655 929.051C-25.4777 878.907 -41.0887 829.005 -51.3782 780.044C-65.0019 715.183 -76.9009 649.147 -75.1025 582.776C-73.6736 530.359 -62.4479 477.528 -32.6139 432.718C-2.22975 387.183 43.248 359.806 92.3226 335.123C166.509 297.811 265.923 251.311 294.098 169.453C298.204 157.548 298.656 146.452 299.37 134.173C299.715 128.209 299.822 120.508 306.383 117.549C322.183 110.432 352.814 136.742 363.489 144.085C397.569 167.522 430.113 192.929 463.741 216.95C495.135 239.374 527.851 263.8 564.641 277.73C623.233 299.898 657.493 229.026 713.326 231.012C747.989 232.25 772.847 263.715 790.042 288.631C811.188 319.309 825.091 363.481 863.679 378.836C892.421 390.274 909.148 372.327 930.959 358.506C967.913 335.084 1018.01 333.488 1060.78 335.925C1118.59 339.211 1177.24 352.051 1230.38 373.907C1254.46 383.811 1279.52 395.943 1298.22 413.804C1315.75 430.537 1320.25 446.375 1316.66 468.737C1305.65 537.195 1274.98 606.315 1247.59 671.961C1213.16 754.442 1175.16 835.786 1132.4 914.701C1103.24 968.513 1072.39 1023.54 1032.1 1070.77C1021.59 1083.08 1010.18 1095.69 996.326 1104.69C985.914 1111.49 977.316 1114.38 971.37 1125.85C953.756 1159.85 958.363 1207.13 960.194 1243.56C963.109 1301.8 970.869 1359.76 977.858 1417.65C981.964 1451.42 994.881 1515.05 963.897 1542.03C937.143 1565.31 891.526 1537.21 867.957 1522.86C808.355 1486.56 756.045 1439.87 702.183 1396.54C677.498 1376.69 652.624 1356.06 625.179 1339.66C618.183 1335.47 608.912 1328.76 600.412 1327.6C590.673 1326.31 583.241 1332.35 575.891 1338.45Z" stroke="white"/>
<path fill-rule="evenodd" clip-rule="evenodd" d="M589.774 1334.18C537.046 1380.12 493.727 1435.48 444.385 1484.8C422.261 1506.92 399.053 1529.25 372.064 1546.11C357.55 1555.17 339.281 1564.8 321.242 1562.3C269.467 1555.12 274.143 1470.31 271.111 1436.04C266.656 1385.13 262.169 1326.64 234.252 1281.62C215.966 1252.13 188.961 1241.07 154.132 1246.57C116.772 1252.48 89.6513 1239.27 68.8098 1209.19C42.7004 1171.49 32.0577 1123.89 24.4969 1080.11C15.4311 1027.36 11.4124 973.943 12.49 920.51C13.5419 868.544 4.35388 818.198 -1.6208 766.574C-9.53499 698.13 -13.4387 627.489 2.78418 559.815C16.9114 500.895 48.0422 447.675 96.1848 407.779C146.431 366.108 209.737 345.479 265.325 311.642C299.998 290.538 345.864 261.109 359.342 221.673C363.837 208.52 357.772 184.55 379.888 195.055C392.536 201.06 403.63 212.297 413.969 221.175C430.677 235.519 446.924 250.339 463.402 264.925C498.527 296.013 534.399 329.305 575.992 352.605C628.359 381.964 668.661 338.323 721.759 343.641C750.334 346.499 773.14 365.33 791.056 385.25C802.66 398.138 812.711 412.242 822.088 426.641C831.884 441.679 839.346 459.473 852.011 472.587C870.033 491.277 891.368 483.163 914.667 479.658C955.612 473.49 997.204 472.135 1038.5 475.624C1089.12 479.892 1141.18 489.899 1187.18 510.98C1205.08 519.18 1224.07 529.569 1236.08 544.996C1248.08 560.423 1247.26 576.379 1243.64 594.057C1232.96 646.49 1208.1 698.815 1184.54 748.554C1155.04 810.807 1122.08 871.838 1084.58 930.12C1058.69 970.35 1030.73 1010.71 995.625 1044.37C985.41 1054.16 974.471 1063.47 962.259 1071C953.884 1076.18 943.077 1078.95 936.782 1086.44C917.132 1109.88 923 1156.94 924.143 1184.43C926.419 1239.29 937.243 1293.29 939.872 1348.08C941.311 1377.99 944.927 1424.82 918.061 1446.78C892.806 1467.44 853.03 1448.73 828.696 1436.39C780.849 1412.13 738.221 1379.54 693.743 1350.33C675.441 1338.32 656.293 1325.16 635.394 1317.38C616.771 1310.46 603.293 1322.4 589.774 1334.18Z" stroke="white"/>
<path fill-rule="evenodd" clip-rule="evenodd" d="M590.636 1322.87C544.237 1359.45 503.048 1403.54 455.894 1440.37C428.279 1461.93 381.855 1499.07 342.923 1482.39C300.143 1464.1 298.978 1400.33 295.531 1363.47C291.428 1319.6 285.823 1268.08 259.111 1230.53C250.666 1218.66 239.489 1208.55 224.766 1204.26C209.01 1199.67 195.223 1204.69 179.45 1205.34C146.362 1206.71 119.797 1187.99 101.554 1163.21C75.7611 1128.2 63.5662 1084.41 55.0643 1043.05C45.475 996.198 40.7474 948.565 40.9491 900.836C41.1133 855.222 40.0464 810.091 38.8155 764.43C37.1742 704.717 39.8248 644.163 56.5579 586.239C73.0529 529.18 103.967 477.302 149.439 436.552C193.811 396.797 248.048 369.975 303.294 346.484C334.651 333.154 381.51 310.635 397.349 278.841C404.398 264.703 403.914 250.829 422.247 265.862C445.332 284.794 463.854 310.308 483.599 332.236C512.092 363.867 541.143 396.291 575.019 422.841C596.652 439.796 617.644 447.352 645.653 446.185C666.989 445.282 688.105 441.189 709.524 443.259C759.797 448.107 794.272 485.636 826.376 518.815C847.023 540.159 862.772 559.651 892.143 570.638C926.856 583.633 964.622 589.087 1000.67 597.771C1040.25 607.311 1081.42 618.329 1116.28 639.152C1147.32 657.687 1161.23 680.229 1152.87 713.969C1139.84 766.593 1107.74 818.463 1078.04 865.182C1047.82 912.733 1013.84 959.467 972.312 998.871C949.884 1020.15 923.549 1034.67 899.455 1053.56C869.206 1077.32 880.662 1131.08 883.222 1163.03C887.473 1216.07 919.282 1382.95 816.257 1367.55C773.255 1361.13 733.569 1335.82 695.622 1317.3C679.874 1309.63 660.974 1298.53 642.928 1296.79C623.273 1294.9 604.604 1311.88 590.636 1322.87Z" stroke="white"/>
<path fill-rule="evenodd" clip-rule="evenodd" d="M594.576 1303.57C552.529 1331.51 512.805 1364.96 467.392 1388.94C437.981 1404.5 398.684 1419.77 367.565 1399.71C332.448 1377.06 324.261 1327.11 319.787 1290.41C315.18 1252.6 311.305 1207.46 284.677 1176.56C276.196 1166.73 264.758 1158.62 251.062 1157.12C237.925 1155.66 224.788 1159.77 211.413 1158.41C181.378 1155.36 156.63 1138.1 138.682 1115.84C85.5826 1050.02 73.7755 952.04 72.3879 872.616C71.6982 832.861 75.3191 791.947 77.9137 751.936C81.2802 700.015 88.5056 648.017 105.921 598.501C142.935 493.221 225.026 422.656 327.176 373.373C359.33 357.863 394.119 345.993 419.958 321.686C433.3 309.155 442.882 311.893 455.051 324.704C474.067 344.733 488.6 369.165 504.471 391.395C527.043 423.014 549.951 455.31 576.989 483.273C595.627 502.547 613.584 516.23 641.534 520.383C661.461 523.347 681.766 522.654 701.817 524.436C739.907 527.827 777.709 539.44 809.304 559.998C834.347 576.332 857.107 595.778 878.808 615.877C907.062 642.005 935.766 664.103 969.299 683.945C1013.69 710.252 1095.56 747.214 1073.9 809.176C1049.99 877.516 989.235 941.571 930.372 985.417C910.609 1000.14 886.371 1012.23 871.796 1032.09C850.013 1061.82 850.777 1091.98 850.867 1127.34C850.99 1180.28 863.118 1295.48 779.434 1296.72C746.278 1297.21 714.93 1283.61 683.039 1277.1C647.322 1269.76 623.232 1284.48 594.576 1303.57Z" stroke="white"/>
<path fill-rule="evenodd" clip-rule="evenodd" d="M598.325 1282.75C543.524 1310.39 453.474 1372.38 392.535 1325.24C360.33 1300.33 348.228 1256.28 341.016 1219.33C335.182 1189.59 332.991 1153.73 308.261 1131.26C290.079 1114.75 263.618 1122.08 240.857 1115.75C212.64 1107.9 189.551 1089.87 172.197 1067.72C123.697 1005.83 108.813 919.769 105.646 845.313C102.364 767.985 117.716 682.781 147.246 610.013C184.078 519.284 253.821 451.31 342.14 403.774C358.443 395.003 375.173 387.034 391.673 378.613C402.742 372.955 413.449 364.565 425.092 360.106C444.506 352.681 460.374 361.429 473.026 375.453C491.241 395.626 504.205 420.406 517.875 443.403C536.582 474.853 554.953 507.003 576.902 536.257C591.671 555.916 607.58 576.494 633.205 583.529C650.681 588.331 669.192 589.327 687.292 589.156C726.102 588.782 757.486 590.712 793.03 607.881C851.385 636.132 903.856 679.574 947.515 725.468C981.779 761.486 1035 818.478 1012.1 870.956C991.584 918.041 942.485 945.584 902.789 976.605C883.491 991.688 865.866 1008.63 852.139 1028.54C834.835 1053.64 827.574 1077.27 824.743 1107C819.976 1157.05 818.737 1232.52 755.394 1247.99C732.018 1253.71 707.805 1250.44 684.125 1253.44C652.815 1257.36 625.968 1268.8 598.325 1282.75Z" stroke="white"/>
<path fill-rule="evenodd" clip-rule="evenodd" d="M600.355 1254C540.391 1273.69 464.821 1299.55 411.528 1252.01C385.711 1228.98 371.278 1196.58 360.493 1165.23C352.764 1142.78 350.488 1107.13 326.725 1093.36C309.237 1083.25 285.112 1081.85 266.376 1072.7C240.616 1060.13 219.399 1041.09 202.79 1018.76C159.509 960.566 142.785 884.774 137.996 815.655C127.606 665.471 210.363 512.658 346.521 432.292C387.107 408.33 430.305 377.398 471.77 416.123C517.006 458.402 538.198 522.092 570.34 572.552C582.612 591.833 597.365 616.402 619.584 627.159C632.94 633.63 649.697 634.073 664.4 634.368C701.849 635.146 735.527 638.094 770.47 652.366C824.469 674.407 874.288 709.554 915.096 749.383C950.68 784.117 992.498 833.652 966.845 884.097C947.131 922.775 905.289 947.305 874.444 977.358C840.093 1010.8 816.945 1052.16 805.634 1097.58C794.66 1141.77 787.259 1190.23 740.636 1213.52C724.643 1221.5 703.935 1229.85 686.234 1232.84C657.048 1237.68 628.326 1244.75 600.355 1254Z" stroke="white"/>
<path fill-rule="evenodd" clip-rule="evenodd" d="M600.777 1221.95C540.227 1231.06 477.09 1232.07 429.368 1189.76C407.104 1170.01 391.287 1145.05 376.956 1119.81C366.411 1101.24 357.517 1082.06 340.23 1068.19C324.224 1055.34 305.639 1045.57 289.215 1033.16C267.448 1016.8 248.606 997.214 233.411 975.167C195.396 919.904 177.616 852.677 171.449 788.361C168.451 757.226 166.891 723.453 175.062 692.529C182.946 662.664 195.412 633.133 209.948 605.672C240.819 547.295 286.028 496.702 343.187 460.025C382.393 434.876 420.515 421.279 460.287 453.845C505.119 490.56 529.855 548.128 558.951 595.577C578.908 628.12 598.47 664.594 640.879 670.673C674.623 675.514 706.652 679.445 738.549 691.969C785.597 710.608 828.217 738.014 863.878 772.56C896.367 804.154 923.936 844.123 906.583 889.314C892.811 925.119 861.957 952.898 839.898 984.181C815.261 1019.04 801.678 1057.35 790.755 1097.68C780.9 1133.93 765.757 1168.06 733.605 1191.49C727.035 1196.28 719.882 1201.32 712.532 1205.02C703.153 1209.73 693.857 1209.37 683.345 1210.29C655.603 1212.71 628.182 1217.84 600.777 1221.95Z" stroke="white"/>
<path fill-rule="evenodd" clip-rule="evenodd" d="M595.828 1186.61C538.314 1185.84 483.959 1172.73 439.138 1136.82C419.964 1121.47 404.17 1103.14 386.601 1086.25C372.436 1072.65 359.275 1059.8 347.603 1044.16C319.965 1007.07 284.2 976.921 259.588 937.5C226.686 884.876 208.499 824.597 201.228 764.784C197.674 735.578 196.432 705.408 200.446 675.859C203.893 650.481 215.993 626.176 228.372 603.63C252.621 559.44 287.087 516.533 330.691 487.841C426.824 424.582 496.717 549.303 537.648 613.316C556.476 642.756 578.283 687.739 615.578 699.798C642.22 708.419 669.316 713.67 695.136 724.772C764.478 754.593 846.035 815.129 835.177 895.799C830.538 930.319 811.693 961.781 799.042 994.006C786.013 1027.19 778.749 1061.43 770.779 1095.92C763.335 1128.16 752.74 1153.85 724.337 1174.66C710.773 1184.62 694.535 1183.74 677.895 1184.62C650.561 1186.07 623.071 1186.96 595.828 1186.61Z" stroke="white"/>
<path fill-rule="evenodd" clip-rule="evenodd" d="M588.461 1154.44C501.65 1141.47 406.876 1093.34 356.46 1022.57C297.155 939.314 247.215 849.121 232.858 749.653C226.202 703.537 222.926 653.02 244.695 609.505C261.251 576.388 285.999 537.92 320.803 519.694C405.932 475.104 473.7 574.285 513.084 630.791C534.286 661.213 554.946 699.938 585.908 722.868C603.86 736.171 627.607 742.963 647.323 753.703C707.072 786.252 755.263 839.83 763.882 906.57C767.863 937.429 762.938 968.513 759.023 999.138C755.017 1030.49 752.842 1062.23 747.252 1093.38C742.787 1118.25 735.227 1147.56 707.146 1156.72C671.76 1168.27 623.913 1159.72 588.461 1154.44Z" stroke="white"/>
<path fill-rule="evenodd" clip-rule="evenodd" d="M574.515 1122.88C492.898 1103.98 413.285 1063.95 364.56 996.666C338.724 960.984 320.889 919.563 303.267 879.795C283.296 834.716 267.794 787.618 260.105 739.514C250.526 679.621 241.892 582.617 313.898 551.325C385.369 520.267 448.626 598.751 484.674 645.163C507.767 674.919 528.962 706.764 554.207 735.195C567.894 750.611 583.708 762.487 599.76 775.532C644.237 811.588 679.448 862.991 698.244 915.383C716.465 966.162 724.532 1028.98 718.511 1082.58C715.923 1105.71 707.19 1122.24 682.364 1129.23C647.852 1138.93 608.23 1130.69 574.515 1122.88Z" stroke="white"/>
<path fill-rule="evenodd" clip-rule="evenodd" d="M552.533 1091.52C480.672 1072.75 415.036 1032.25 371.907 973.17C323.557 906.948 296.691 821.677 283.029 743.303C275.773 701.643 256.097 611.365 312.407 590.131C368.716 568.896 424.207 630.282 454.755 665.613C491.774 708.493 527.516 754.724 560.731 800.902C589.609 841.022 619.134 883.832 641.435 927.288C654.087 951.797 664.416 977.328 672.302 1003.58C678.094 1023.02 686.733 1047.73 682.422 1068.11C671.533 1119.52 586.893 1100.5 552.533 1091.52Z" stroke="white"/>
<path fill-rule="evenodd" clip-rule="evenodd" d="M531.015 1052.82C395.116 1011.62 328.279 881.088 304.983 755.407C299.575 726.202 280.078 644.332 321.591 628.008C361.841 612.189 409.575 662.499 432.191 686.053C502.269 759.037 554.229 849.209 605.705 934.655C621.772 961.326 656.639 1009.43 640.555 1042.51C623.06 1078.43 559.194 1061.35 531.015 1052.82Z" stroke="white"/>
<path fill-rule="evenodd" clip-rule="evenodd" d="M504.858 1010.62C404.779 974.789 347.38 870.578 328.457 774.766C323.827 751.298 309.412 691.698 337.34 673.923C363.174 657.475 400.608 696.728 415.484 711.414C448.608 744.108 475.895 782.853 502.124 821.131C526.39 856.524 551.264 892.298 571.787 929.539C582.591 949.154 605.642 985.942 588.961 1008.23C571.016 1032.23 527.08 1018.57 504.858 1010.62Z" stroke="white"/>
<path fill-rule="evenodd" clip-rule="evenodd" d="M475.618 964.114C410.263 936.806 367.823 863.667 353.72 799.15C349.934 781.79 340.11 744.269 357.564 729.624C373.638 716.141 397.203 737.871 408.086 747.514C456.324 790.255 499.413 852.846 525.877 910.192C532.53 924.611 545.59 950.531 532.16 965.363C518.37 980.577 490.624 970.387 475.618 964.114Z" stroke="white"/>
<path fill-rule="evenodd" clip-rule="evenodd" d="M448.165 914.782C415.712 899.393 391.227 859.175 383.433 825.861C377.952 802.415 382.687 774.232 410.936 794.665C438.969 814.964 464.574 852.628 475.925 884.551C484.581 908.906 476.041 927.995 448.165 914.782Z" stroke="white"/>
<path fill-rule="evenodd" clip-rule="evenodd" d="M1679.29 591.618C1719.87 655 1753.36 726.65 1787.41 794.217C1837.15 892.957 1885.55 993.151 1922.61 1096.9C1942.47 1152.53 1971.1 1224.6 1955.54 1284.29C1949.86 1306.11 1932.65 1326.01 1921.48 1345.58C1906.06 1372.56 1891.41 1399.94 1876.73 1427.27C1847.3 1482.09 1818.17 1537.08 1786.85 1590.97C1771.76 1616.91 1752.76 1642.09 1739.9 1669.1C1732.37 1684.88 1735.89 1703.77 1736.37 1720.64C1737.47 1759.71 1739.58 1798.75 1741.36 1837.8C1743.55 1885.56 1745.87 1933.43 1745.01 1981.24C1744.61 2002.81 1748.65 2055.62 1729.05 2067.49C1718.5 2073.88 1699.47 2058.83 1690.66 2051.85C1674.48 2039.04 1659.89 2024.31 1645.46 2009.78C1612.07 1976.17 1580.28 1940.48 1542.98 1910.6C1523.81 1895.25 1500.39 1875.14 1474.22 1885.16C1447.78 1895.28 1424.89 1912.8 1398.55 1923.48C1368.23 1935.79 1336.69 1940.9 1304.54 1946.71C1280.78 1951.01 1259.73 1961.03 1237.82 1970.45C1213.61 1980.86 1189.2 1991.64 1163.67 1998.87C1146.8 2003.65 1116.46 2011.36 1105.78 1994.65C1090.6 1970.9 1102.89 1926.38 1107.37 1899.31C1113.54 1861.91 1121.4 1824.78 1128.17 1787.47C1133.09 1760.39 1138.49 1733.22 1139.07 1705.68C1140 1661.3 1136.79 1616.77 1133.8 1572.5C1128.27 1490.54 1120.77 1409.16 1120.77 1326.92C1120.77 1254.86 1208.72 1088.35 1224.21 1049.38C1255.12 971.578 1284.43 891.712 1325.56 818.093C1336.7 798.177 1351.54 767.525 1374.46 757.046C1388.59 750.581 1396.75 753.553 1405.85 738.304C1418.27 717.502 1423.15 690.848 1428.7 667.82C1437.65 630.735 1445.22 593.361 1453.32 556.104C1469.66 480.75 1488.15 405.91 1505.93 330.867C1511.31 308.181 1512.5 280.734 1521.97 259.107C1528.05 245.166 1535.71 246.613 1544.95 257.403C1561.16 276.331 1570.17 302.86 1579.42 325.219C1592.97 357.979 1605.05 391.276 1616.97 424.589C1628.89 457.901 1640.43 491.385 1652.38 524.713C1660.24 546.73 1666.63 571.835 1679.29 591.618Z" stroke="white"/>
<path fill-rule="evenodd" clip-rule="evenodd" d="M1670.37 643.775C1711.03 710.819 1743.42 785.24 1775.02 856.984C1815.49 948.804 1853.42 1042.7 1878.71 1139.45C1893.56 1196.25 1909.95 1263.27 1892.93 1321.31C1886.85 1342.02 1873.2 1357.49 1861.15 1375.24C1847.4 1395.47 1834.8 1416.48 1822.4 1437.49C1796.87 1480.74 1772.22 1524.44 1748.43 1568.61C1735.78 1592 1718.84 1617.74 1714.46 1644.17C1710.96 1665.18 1716.02 1689.04 1717.49 1710.15C1720.13 1748.15 1722.86 1786.15 1725.18 1824.17C1727.85 1868.04 1730.32 1912.04 1729.89 1956C1729.65 1980.5 1733.59 2022.57 1716.88 2039.9C1702.3 2055.02 1649.57 1999.97 1639.55 1990.29C1608.27 1960.06 1578.48 1928.27 1545.03 1900.13C1525.31 1883.5 1501.32 1863.25 1475.17 1856.24C1452.89 1850.27 1427.51 1861.79 1406.91 1868.59C1381.11 1877.1 1354.37 1883.96 1329.11 1893.84C1306.61 1902.64 1286.56 1916.65 1266.11 1928.95C1243.6 1942.48 1220.73 1956.19 1196.18 1966.23C1181.08 1972.39 1155.78 1982.57 1141.38 1970.34C1124.78 1956.21 1135.63 1912.65 1137.99 1894.75C1142.86 1858.42 1150.09 1822.38 1156.57 1786.3C1167.32 1726.39 1176.72 1669.26 1174.47 1608.25C1171.53 1528.8 1164.61 1449.42 1160.78 1369.98C1159.35 1340.64 1156.47 1310.84 1158.02 1281.48C1158.92 1264.65 1164.34 1251.83 1176.58 1242.04C1193.28 1228.68 1202.53 1197.89 1212.11 1176.47C1227.04 1143.08 1240.93 1109.27 1255 1075.55C1285.91 1001.54 1315.69 926.098 1355.66 855.903C1368.3 833.695 1382.39 808.265 1403.28 791.839C1414.92 782.672 1426.14 784.983 1438.52 779.389C1454.8 771.981 1462.15 747.625 1467.47 733.066C1477.76 704.968 1484.66 675.718 1491.12 646.693C1505.73 581.018 1515.34 515.188 1522.42 448.447C1524.06 432.807 1529.76 371.218 1557.21 403.565C1587.54 439.304 1602.41 490.91 1619.5 532.984C1634.87 570.887 1649.17 608.821 1670.37 643.775Z" stroke="white"/>
<path fill-rule="evenodd" clip-rule="evenodd" d="M1662.85 736.429C1698.62 799.448 1725.31 869.26 1750.83 937.132C1781.81 1019.49 1809.42 1103.92 1824.89 1190.3C1834.6 1244.56 1842.06 1304.39 1825.93 1358.28C1814.91 1395.09 1785.14 1423.56 1764.66 1455.89C1744.18 1488.22 1724.95 1521.85 1708.93 1556.49C1698.98 1577.99 1688.96 1601.12 1690.28 1625.04C1693.46 1683.21 1701.05 1741.3 1704.73 1799.53C1707.2 1838.05 1709.22 1876.65 1708.62 1915.29C1708.25 1938.59 1709.73 1970.6 1696.8 1991.22C1682.5 2014.02 1560.38 1892.62 1546.63 1881.15C1512.17 1852.38 1466.43 1817.54 1417.41 1823.1C1370.56 1828.43 1335.58 1851.48 1298.86 1877.56C1277.98 1892.36 1222.19 1939.83 1195.03 1922.24C1179.5 1912.19 1184.88 1879.07 1185.94 1863.33C1188.02 1832.32 1192.5 1801.48 1196.39 1770.63C1202.03 1725.66 1210.73 1679.44 1213.29 1634.27C1215.06 1602.81 1212.69 1571.17 1212.64 1539.66C1212.57 1494.48 1212.93 1449.3 1213.36 1404.12C1213.72 1366.18 1213.36 1327.93 1217.2 1290.12C1219.56 1266.62 1224.87 1248.78 1239.87 1231.93C1252.92 1217.26 1260.56 1195.13 1268.86 1176.43C1282.55 1145.55 1295.25 1114.27 1308.14 1083.09C1335.16 1017.8 1361.61 951.768 1395.37 889.279C1410.77 860.753 1432.33 812.792 1469.68 806.1C1483.14 803.686 1488.96 801.91 1496.62 789.446C1507.48 771.756 1512.38 750.567 1516.64 730.719C1526.57 684.448 1525.08 636.837 1534.9 590.644C1538.94 571.832 1547.67 547.271 1567.66 568.747C1591.04 593.807 1603.89 630.286 1618.33 660.308C1625.54 675.295 1632.28 690.735 1641.08 704.966C1647.86 715.895 1656.55 725.251 1662.85 736.429Z" stroke="white"/>
<path fill-rule="evenodd" clip-rule="evenodd" d="M1651.68 855.788C1680.74 914.01 1701.86 977.24 1720.9 1039.34C1742.02 1108.31 1759.52 1178.94 1766.96 1250.51C1772.12 1299.93 1773.64 1352.58 1757.86 1400.54C1747.87 1430.87 1726.87 1451.44 1709.26 1477.54C1682.64 1516.93 1661.55 1559.55 1666.69 1606.88C1672.43 1659.94 1676.74 1713.17 1679.61 1766.57C1681.34 1798.79 1682.64 1831.12 1681.44 1863.38C1680.68 1883.77 1679.4 1910.04 1669.66 1927.78C1656.6 1951.52 1557.27 1862.36 1542.8 1851.24C1506.89 1823.68 1469.22 1803.48 1424.74 1791.67C1388.44 1782.04 1359.9 1801.71 1332.75 1822C1315.89 1834.62 1273.48 1875.38 1251.58 1862.62C1239.51 1855.62 1240.13 1832.55 1239.51 1820.16C1238.35 1796.55 1239.56 1772.83 1240.1 1749.22C1240.92 1714.35 1235.27 1677.24 1239.82 1642.67C1249.89 1566.05 1258.61 1489.63 1265.51 1412.54C1269.31 1370.05 1272.76 1327.29 1280.09 1285.18C1282.72 1270.06 1285.51 1254.44 1291.47 1240.12C1295.29 1230.9 1301.81 1225.88 1307.15 1218.1C1332.6 1181.02 1345.7 1132.61 1362.01 1090.85C1383.69 1035.32 1405.04 979.504 1430.65 925.458C1444.12 897.032 1459.6 857.328 1487.1 837.768C1495.41 831.857 1502.05 834.377 1510.04 830.659C1519.25 826.382 1522 813.386 1524.57 804.994C1530.4 785.947 1539.22 706.22 1573.43 742.961C1589.72 760.491 1600.18 782.828 1612.98 802.59C1617.62 809.746 1622.29 816.722 1628.55 822.687C1639.04 832.666 1645.03 842.496 1651.68 855.788Z" stroke="white"/>
</g>
</svg>
